<!DOCTYPE svg PUBLIC "-//W3C//DTD SVG 1.1//EN" "http://www.w3.org/Graphics/SVG/1.1/DTD/svg11.dtd">
<!-- Uploaded to: SVG Repo, www.svgrepo.com, Transformed by: SVG Repo Mixer Tools -->
<svg fill="#000000" width="75px" height="75px" viewBox="0 0 24 24" id="house-storm-2" data-name="Flat Color" xmlns="http://www.w3.org/2000/svg" class="icon flat-color">
<g id="SVGRepo_bgCarrier" stroke-width="0"/>
<g id="SVGRepo_tracerCarrier" stroke-linecap="round" stroke-linejoin="round"/>
<g id="SVGRepo_iconCarrier">
<path id="primary" d="M3.42,9.9l8-5.71a1,1,0,0,1,1.16,0l8,5.71a1,1,0,0,1-1.16,1.62l-.42-.3V21a1,1,0,0,1-1,1H6a1,1,0,0,1-1-1V11.22l-.42.3a1,1,0,0,1-.58.19A1,1,0,0,1,3.42,9.9Z" style="fill: #000000;"/>
<path id="primary-2" data-name="primary" d="M4,22H20a1,1,0,0,0,0-2H4a1,1,0,0,0,0,2Z" style="fill: #000000;"/>
<path id="secondary" d="M10,14h4a1,1,0,0,1,1,1v6a1,1,0,0,1-1,1H10a1,1,0,0,1-1-1V15A1,1,0,0,1,10,14ZM8.89,11.45l2-4A1,1,0,0,0,10,6H7.62L8.89,3.45a1,1,0,0,0-1.78-.9l-2,4A1,1,0,0,0,6,8H8.38L7.11,10.55a1,1,0,0,0,.44,1.34A.93.93,0,0,0,8,12,1,1,0,0,0,8.89,11.45Z" style="fill: #2ca9bc;"/>
</g>
</svg>